<svg height="32" viewBox="0 0 32 32" width="32" xmlns="http://www.w3.org/2000/svg"><path d="m8.81549973 14.5511943-3.80446894 2.4570728c.09896981 2.2756517.85928444 4.3797193 2.09353211 6.124791l4.0447161-.2221741 2.464259-2.5518149-1.25162-4.3025096zm.08876227-1.048683-1.54166183-3.98617923c1.3026808-1.70184347 3.07005803-3.02914305 5.11258583-3.7923528l3.524814 2.86904283v3.8139558l-3.3166941 2.6996424zm3.2178679 9.8405127 1.1104046 4.1861613c1.0357299.3063682 2.1323934.4708147 3.2674655.4708147s2.2317356-.1644465 3.2674655-.4708147l1.0861168-4.0945975-2.3510541-2.4345878h-4.1177663zm9.6095675-.4386779 4.1637397.228712c1.2342477-1.7450717 1.9945623-3.8491393 2.0935321-6.124791l-3.8386707-2.4791616-3.5000672 1.4856904-1.289862 4.4339681zm2.380979-9.4456313 1.5247234-3.94238273c-1.3026808-1.70184347-3.070058-3.02914305-5.1125858-3.7923528l-3.524814 2.86904283v3.8139558l3.2871352 2.6755828zm-7.6126764 15.5412852c6.9035597 0 12.5-5.5964403 12.5-12.5 0-6.90355971-5.5964403-12.5-12.5-12.5-6.90355971 0-12.5 5.59644029-12.5 12.5 0 6.9035597 5.59644029 12.5 12.5 12.5z" fill-rule="evenodd"/></svg>